<svg width="71" height="71" viewBox="0 0 71 71" fill="none" xmlns="http://www.w3.org/2000/svg">
<g clip-path="url(#clip0_450_2416)">
<path d="M37.8614 4.47341C37.1091 4.41787 36.355 4.39004 35.6006 4.39V0C36.4634 0.000420683 37.3259 0.0326359 38.1863 0.09658L37.8614 4.47341ZM46.659 6.44891C45.2518 5.90589 43.8065 5.46716 42.3348 5.1363L43.2963 0.85166C44.9776 1.2292 46.6327 1.72966 48.2394 2.35304L46.659 6.44891V6.44891ZM52.6733 9.56581C52.0456 9.14722 51.4028 8.75185 50.7461 8.38051L52.9104 4.56121C54.4113 5.41171 55.8478 6.37131 57.2082 7.43227L54.5083 10.896C53.9131 10.4317 53.3011 9.98943 52.6733 9.5702V9.56581ZM60.7246 17.4239C59.8562 16.1902 58.898 15.0222 57.8579 13.9295L61.0362 10.9004C62.2215 12.1515 63.319 13.4905 64.3156 14.8953L60.7246 17.4239V17.4239ZM63.9907 23.3592C63.7026 22.6632 63.3892 21.9779 63.0513 21.3047L66.9715 19.3292C67.7468 20.8704 68.4071 22.4669 68.947 24.1055L64.7765 25.4796C64.5406 24.7634 64.2785 24.0561 63.9907 23.3592V23.3592ZM66.3174 34.3649C66.2819 32.8562 66.1352 31.3523 65.8784 29.8652L70.2026 29.1189C70.4967 30.8134 70.6679 32.5343 70.7118 34.2552L66.3218 34.3649H66.3174ZM65.7423 41.1167C65.8872 40.3704 66.0057 39.6285 66.0979 38.8778L70.4572 39.4178C70.2463 41.1306 69.9088 42.8254 69.4475 44.4883L65.2155 43.3161C65.4175 42.5918 65.5931 41.8586 65.7423 41.1167V41.1167ZM61.563 51.5605C62.3708 50.2874 63.082 48.9529 63.6966 47.5744L67.709 49.3524C67.0066 50.9328 66.1945 52.4517 65.2726 53.9092L61.563 51.5605ZM57.3311 56.8505C57.8667 56.3149 58.3803 55.7618 58.8676 55.1911L62.1952 58.0577C61.6317 58.7111 61.0445 59.3437 60.4348 59.9542L57.3311 56.8505V56.8505Z" fill="#F20F8C"/>
<path d="M35.6005 4.39C30.5471 4.39037 25.5718 5.63696 21.1152 8.01938C16.6586 10.4018 12.8583 13.8465 10.051 18.0484C7.24361 22.2503 5.51581 27.0796 5.02062 32.1087C4.52543 37.1378 5.27813 42.2114 7.21203 46.8802C9.14594 51.5489 12.2014 55.6686 16.1077 58.8745C20.014 62.0804 24.6507 64.2734 29.607 65.2594C34.5633 66.2454 39.6863 65.9939 44.5221 64.5271C49.358 63.0603 53.7575 60.4236 57.331 56.8505L60.4347 59.9542C56.3509 64.0403 51.3222 67.0561 45.7943 68.7342C40.2663 70.4123 34.4098 70.7011 28.7436 69.5748C23.0774 68.4486 17.7765 65.9421 13.3105 62.2775C8.84452 58.6129 5.35137 53.9034 3.14056 48.5661C0.929755 43.2288 0.0695463 37.4286 0.636154 31.6794C1.20276 25.9302 3.17869 20.4095 6.38887 15.6065C9.59905 10.8035 13.9444 6.86645 19.0398 4.14417C24.1352 1.4219 29.8235 -0.00153093 35.6005 1.2356e-06V4.39Z" fill="#F20F8C"/>
<path d="M33.4059 13.1699C33.9881 13.1699 34.5464 13.4012 34.958 13.8128C35.3697 14.2245 35.6009 14.7828 35.6009 15.3649V38.2368L49.8597 46.3847C50.3504 46.6807 50.7059 47.157 50.8502 47.7117C50.9944 48.2664 50.916 48.8555 50.6316 49.3532C50.3473 49.8508 49.8795 50.2175 49.3284 50.3748C48.7773 50.5322 48.1864 50.4677 47.6822 50.1952L32.3172 41.4152C31.9813 41.2233 31.702 40.946 31.5077 40.6114C31.3134 40.2768 31.2111 39.8968 31.2109 39.5099V15.3649C31.2109 14.7828 31.4422 14.2245 31.8538 13.8128C32.2655 13.4012 32.8238 13.1699 33.4059 13.1699V13.1699Z" fill="#F20F8C"/>
</g>
<defs>
<clipPath id="clip0_450_2416">
<rect width="70.24" height="70.24" fill="white" transform="translate(0.480469)"/>
</clipPath>
</defs>
</svg>
