<svg width="71" height="71" viewBox="0 0 71 71" fill="none" xmlns="http://www.w3.org/2000/svg">
<path d="M44.1058 44.4777C45.9724 44.4777 47.7627 45.2192 49.0826 46.5392C50.4026 47.8591 51.1441 49.6494 51.1441 51.5161V53.3156C51.1441 56.1165 50.1427 58.8236 48.3244 60.9485C43.411 66.685 35.9408 69.5141 26.0983 69.5141C16.2527 69.5141 8.78563 66.6819 3.88476 60.9391C2.07039 58.8157 1.07281 56.1148 1.07129 53.3218V51.5129C1.0717 50.5886 1.25416 49.6735 1.60825 48.8197C1.96234 47.9659 2.48113 47.1903 3.13499 46.537C3.78885 45.8837 4.56499 45.3656 5.41908 45.0123C6.27317 44.6589 7.18849 44.4773 8.11278 44.4777H44.1058ZM44.1058 49.172H8.10965C7.48797 49.172 6.89176 49.419 6.45217 49.8586C6.01258 50.2982 5.76562 50.8944 5.76562 51.5161V53.3249C5.76562 54.9993 6.36649 56.6204 7.45557 57.8941C11.3738 62.4914 17.5265 64.826 26.0983 64.826C34.6702 64.826 40.826 62.4914 44.7567 57.8972C45.8478 56.6213 46.4472 54.9975 46.4467 53.3187V51.5192C46.4467 50.8981 46.2001 50.3023 45.7612 49.8628C45.3223 49.4233 44.7269 49.176 44.1058 49.1752V49.172ZM57.5628 1.92832C58.1032 1.61973 58.744 1.53836 59.3444 1.7021C59.9447 1.86583 60.4555 2.26126 60.7644 2.80146C64.2051 8.82136 66.0102 15.637 66.0001 22.5708C66.0001 29.6248 64.1662 36.416 60.7299 42.3997C60.5836 42.6797 60.3821 42.9274 60.1377 43.1277C59.8933 43.328 59.611 43.477 59.3077 43.5655C59.0043 43.6541 58.6862 43.6805 58.3724 43.6432C58.0586 43.6059 57.7556 43.5055 57.4815 43.3482C57.2074 43.191 56.9679 42.98 56.7774 42.7279C56.5868 42.4758 56.4491 42.1878 56.3725 41.8812C56.296 41.5746 56.2821 41.2557 56.3317 40.9436C56.3814 40.6316 56.4936 40.3327 56.6615 40.065C59.7152 34.7411 61.3167 28.7084 61.3058 22.5708C61.3058 16.3649 59.7003 10.3969 56.6897 5.12985C56.3811 4.58947 56.2997 3.94867 56.4635 3.34832C56.6272 2.74797 57.0226 2.23721 57.5628 1.92832V1.92832ZM26.0983 6.9356C30.2484 6.9356 34.2284 8.5842 37.1629 11.5187C40.0975 14.4532 41.7461 18.4333 41.7461 22.5834C41.7461 26.7334 40.0975 30.7135 37.1629 33.648C34.2284 36.5825 30.2484 38.2311 26.0983 38.2311C21.9483 38.2311 17.9682 36.5825 15.0337 33.648C12.0992 30.7135 10.4506 26.7334 10.4506 22.5834C10.4506 18.4333 12.0992 14.4532 15.0337 11.5187C17.9682 8.5842 21.9483 6.9356 26.0983 6.9356V6.9356ZM46.7158 8.1749C47.2566 7.86658 47.8976 7.78568 48.498 7.95001C49.0984 8.11434 49.609 8.51044 49.9173 9.05118C52.2605 13.1713 53.4891 17.8311 53.4819 22.5708C53.4819 27.3841 52.2363 32.0221 49.9017 36.1155C49.7504 36.3859 49.547 36.6236 49.3034 36.8149C49.0598 37.0063 48.7807 37.1476 48.4822 37.2305C48.1837 37.3135 47.8717 37.3366 47.5643 37.2984C47.2568 37.2602 46.96 37.1615 46.6909 37.0081C46.4218 36.8546 46.1857 36.6494 45.9962 36.4042C45.8068 36.1591 45.6678 35.8789 45.5872 35.5798C45.5066 35.2806 45.486 34.9685 45.5266 34.6614C45.5673 34.3542 45.6683 34.0582 45.8239 33.7903C47.7724 30.3726 48.7941 26.505 48.7876 22.5708C48.7942 18.6452 47.777 14.7857 45.8364 11.3733C45.5293 10.8325 45.4494 10.1918 45.6143 9.59215C45.7792 8.99246 46.1754 8.48273 46.7158 8.1749V8.1749ZM26.0983 11.6331C24.6599 11.6331 23.2355 11.9164 21.9066 12.4668C20.5777 13.0173 19.3702 13.8241 18.3531 14.8412C17.3359 15.8584 16.5291 17.0659 15.9787 18.3948C15.4282 19.7237 15.1449 21.1481 15.1449 22.5865C15.1449 24.0249 15.4282 25.4493 15.9787 26.7782C16.5291 28.1071 17.3359 29.3146 18.3531 30.3317C19.3702 31.3489 20.5777 32.1557 21.9066 32.7061C23.2355 33.2566 24.6599 33.5399 26.0983 33.5399C29.0033 33.5399 31.7894 32.3859 33.8436 30.3317C35.8977 28.2776 37.0517 25.4915 37.0517 22.5865C37.0517 19.6815 35.8977 16.8954 33.8436 14.8412C31.7894 12.7871 29.0033 11.6331 26.0983 11.6331V11.6331Z" fill="#F20F8C"/>
</svg>
