<svg width="71" height="71" viewBox="0 0 71 71" fill="none" xmlns="http://www.w3.org/2000/svg">
<path d="M33.4971 2C27.1056 2 21.8762 7.24348 21.8762 13.6522C21.8762 19.0471 25.5978 23.5507 30.5919 24.8499V31.1304H21.8762V36.9565H30.5919V60.1706C23.5438 59.6113 18.8548 57.0303 15.5196 54.0707C12.9805 51.8189 11.278 49.337 10.0753 47.2425L14.7033 44.9674L3.08243 39.686L0 52.25L4.81103 49.8817C6.58013 53.1014 8.88296 55.9956 11.6208 58.4402C15.8421 62.198 22.0709 65.3004 30.5948 65.9063V66.087L33.5 69L36.4052 66.087V65.9034C44.9291 65.3004 51.1579 62.1951 55.3792 58.4402C58.117 55.9956 60.4199 53.1014 62.189 49.8817L67 52.25L63.9147 39.686L52.2938 44.9674L56.9218 47.2425C55.7191 49.337 54.0166 51.816 51.4745 54.0707C48.1394 57.0303 43.4533 59.6113 36.4052 60.1706V36.9565H45.1208V31.1304H36.4052V24.8499C41.3993 23.5507 45.1208 19.0471 45.1208 13.6522C45.1208 7.24348 39.8915 2 33.5 2H33.4971ZM33.4971 7.82609C36.7422 7.82609 39.3075 10.3983 39.3075 13.6522C39.3075 16.906 36.7422 19.4783 33.4971 19.4783C30.252 19.4783 27.6867 16.906 27.6867 13.6522C27.6867 10.3983 30.252 7.82609 33.4971 7.82609Z" fill="#F20F8C"/>
</svg>
